<svg xmlns="http://www.w3.org/2000/svg" xmlns:xlink="http://www.w3.org/1999/xlink" width="500" zoomAndPan="magnify" viewBox="0 0 375 374.999991" height="500" preserveAspectRatio="xMidYMid meet" version="1.0"><defs><clipPath id="8652d6a0f7"><path d="M 9.542969 66 L 375 66 L 375 317 L 9.542969 317 Z M 9.542969 66 " clip-rule="nonzero"/></clipPath></defs><path fill="#1e202a" d="M 140.675781 82.675781 L 142.074219 113.363281 L 153.230469 103.597656 C 168.171875 94.375 185.386719 91.039062 202.75 90.519531 C 221.148438 91.042969 239.9375 95.164062 256 104.332031 C 267.523438 111.953125 279.019531 122.0625 285.742188 134.285156 L 285.742188 137.074219 L 315.035156 138.46875 C 312.246094 144.050781 312.246094 144.050781 308.824219 147.324219 C 304.53125 151.492188 300.71875 155.257812 298.296875 160.789062 C 297.390625 168.554688 299.324219 176.355469 300.628906 183.992188 C 302.921875 200.527344 299.039062 218 293.007812 233.34375 C 286.664062 248.460938 278.226562 261.136719 265.332031 271.402344 C 250.703125 282.324219 234.109375 289.015625 215.984375 291.511719 C 196.855469 293.3125 179.039062 290.628906 161.382812 282.890625 C 154.679688 279.261719 149.214844 274.574219 143.46875 269.585938 L 143.46875 303.0625 C 135.773438 306.644531 128.078125 310.222656 120.378906 313.789062 C 117.757812 315.007812 115.136719 316.222656 112.519531 317.445312 C 108.761719 319.191406 105.003906 320.9375 101.242188 322.679688 L 97.679688 324.34375 L 94.378906 325.867188 L 91.46875 327.21875 C 89.066406 328.171875 89.066406 328.171875 86.277344 328.171875 L 86.277344 300.273438 L 93.773438 296.785156 L 97.992188 294.824219 C 101.621094 293.300781 101.621094 293.300781 104.410156 293.300781 L 105.433594 288.75 C 106.402344 284.5 107.414062 280.257812 108.464844 276.027344 C 109.414062 272.175781 110.199219 268.289062 110.820312 264.367188 C 111.816406 259.320312 112.945312 255.890625 115.570312 251.453125 C 118.925781 249.285156 121.871094 247.667969 125.476562 246.058594 L 128.460938 244.652344 C 130.542969 243.671875 132.632812 242.703125 134.722656 241.746094 C 137.796875 240.335938 140.847656 238.886719 143.894531 237.421875 C 148.839844 235.054688 153.800781 232.726562 158.777344 230.4375 C 160.804688 229.496094 162.828125 228.550781 164.847656 227.59375 C 167.828125 226.183594 170.816406 224.792969 173.816406 223.421875 L 176.523438 222.117188 C 180.886719 220.148438 183.714844 219.355469 188.519531 219.777344 L 192.289062 220.765625 C 199.558594 222.015625 205.800781 222.710938 212.949219 220.507812 C 218.078125 218.46875 221.964844 216.511719 225.765625 212.398438 C 229.539062 206.789062 232.230469 201.308594 233.417969 194.617188 C 233.769531 187.609375 232.726562 182.019531 229.863281 175.609375 C 227.34375 171.09375 224.863281 167.960938 220.707031 164.886719 C 214.285156 161.199219 209.8125 160.5 202.488281 160.351562 C 196.59375 160.417969 191.445312 160.484375 186.011719 162.878906 C 180.101562 166.449219 176.28125 171.6875 172.757812 177.527344 L 171.253906 181.539062 C 168.574219 185.894531 168.574219 185.894531 166.289062 187.511719 C 163.347656 189.046875 160.367188 190.394531 157.316406 191.703125 L 153.957031 193.222656 C 150.410156 194.808594 146.855469 196.378906 143.292969 197.925781 C 140.929688 198.980469 138.570312 200.039062 136.210938 201.097656 C 130.832031 203.507812 125.445312 205.890625 120.042969 208.242188 C 117.871094 209.207031 115.707031 210.199219 113.558594 211.210938 C 112.445312 211.726562 111.332031 212.246094 110.1875 212.78125 L 107.148438 214.226562 C 104.410156 215.1875 104.410156 215.1875 100.050781 214.488281 C 95.394531 212.058594 90.839844 209.425781 86.277344 206.816406 L 86.277344 106.386719 L 117.242188 91.824219 L 123.054688 89.089844 L 126.117188 87.648438 C 136.6875 82.675781 136.6875 82.675781 140.675781 82.675781 M 831.132812 118.941406 L 832.53125 131.496094 L 835.234375 129.054688 C 841.824219 124.214844 849.53125 120.421875 857.636719 118.941406 C 870.019531 118.148438 881.859375 117.785156 893.472656 122.734375 C 898.4375 125.488281 902.496094 128.84375 906.457031 132.890625 L 909.246094 135.679688 L 911.550781 133.742188 C 919.582031 127.207031 927.40625 122.144531 937.5 119.519531 C 949.492188 117.710938 964.300781 117.210938 975.820312 121.417969 C 983.746094 125.691406 990.121094 131.644531 995.265625 139.015625 C 1002.957031 152.996094 1003.117188 168.898438 1002.976562 184.476562 L 1002.964844 189.472656 C 1002.949219 194.671875 1002.914062 199.875 1002.878906 205.074219 C 1002.863281 208.625 1002.851562 212.179688 1002.839844 215.730469 C 1002.8125 224.386719 1002.753906 233.039062 1002.703125 241.691406 L 966.4375 241.691406 L 966.328125 225.605469 C 966.273438 220.445312 966.210938 215.285156 966.144531 210.121094 C 966.105469 206.542969 966.078125 202.96875 966.058594 199.390625 C 966.027344 194.238281 965.964844 189.085938 965.890625 183.933594 L 965.886719 179.117188 C 965.757812 172.078125 965.46875 166.253906 962.351562 159.859375 C 959.753906 155.371094 959.753906 155.371094 957.019531 152.503906 C 952.347656 150.296875 947.832031 149.636719 942.722656 149.628906 C 936.453125 150.273438 932.230469 151.980469 926.945312 155.46875 C 922.839844 159.765625 920.570312 163.492188 919.011719 169.15625 C 918.378906 174.765625 918.332031 180.339844 918.296875 185.976562 L 918.222656 190.8125 C 918.144531 195.886719 918.097656 200.960938 918.054688 206.035156 C 918.007812 209.484375 917.957031 212.933594 917.90625 216.382812 C 917.789062 224.820312 917.695312 233.253906 917.617188 241.691406 C 911.832031 241.730469 906.050781 241.753906 900.269531 241.777344 L 895.261719 241.8125 L 890.507812 241.828125 L 886.101562 241.847656 L 882.746094 241.691406 L 881.351562 240.292969 C 881.210938 237.984375 881.136719 235.671875 881.128906 233.355469 L 881.085938 228.867188 L 881.054688 223.976562 L 880.933594 213.804688 C 880.875 208.441406 880.828125 203.074219 880.789062 197.707031 C 880.75 192.542969 880.6875 187.378906 880.621094 182.21875 L 880.605469 177.367188 C 880.503906 170.824219 880.375 165.976562 877.820312 159.882812 L 875.769531 156.601562 L 875.769531 153.8125 C 869.910156 151.066406 864.089844 149.75 857.636719 149.628906 C 851.464844 150.253906 847.136719 152.007812 841.859375 155.296875 C 837.089844 160.507812 835.496094 165.121094 833.925781 171.945312 C 833.328125 177.445312 833.242188 182.902344 833.210938 188.429688 L 833.136719 193.066406 C 833.058594 197.910156 833.011719 202.757812 832.964844 207.601562 C 832.917969 210.90625 832.871094 214.207031 832.820312 217.511719 C 832.699219 225.570312 832.617188 233.628906 832.53125 241.691406 L 797.65625 241.691406 L 797.65625 134.285156 C 828.34375 118.941406 828.34375 118.941406 831.132812 118.941406 M 458.707031 118.941406 L 457.3125 131.496094 L 460.628906 129.460938 C 462.09375 128.574219 463.558594 127.695312 465.070312 126.789062 L 469.4375 124.140625 C 480.328125 118.453125 490.652344 118.238281 502.617188 118.511719 C 514.054688 119.085938 523.457031 122.785156 533.070312 128.878906 C 541.320312 135.089844 546.691406 142.6875 551.160156 151.933594 C 556.441406 164.480469 557.109375 176.558594 556.347656 190.078125 C 554.90625 200.882812 551.382812 209.652344 545.195312 218.617188 C 538.316406 227.332031 531.28125 233.046875 521.039062 237.417969 C 509.199219 241.984375 497.816406 242.875 485.207031 241.691406 C 476.078125 239.59375 469.21875 235.738281 461.496094 230.53125 L 461.390625 235.246094 C 461.257812 241 461.121094 246.753906 460.976562 252.503906 C 460.917969 255 460.859375 257.492188 460.804688 259.984375 C 460.722656 263.5625 460.632812 267.140625 460.542969 270.714844 L 460.472656 274.113281 C 460.390625 276.792969 460.265625 279.46875 460.101562 282.140625 L 458.707031 283.535156 C 456.238281 283.675781 453.765625 283.71875 451.296875 283.722656 L 446.753906 283.726562 L 441.96875 283.710938 L 437.183594 283.726562 L 432.640625 283.722656 L 428.4375 283.714844 L 425.230469 283.535156 L 423.835938 282.140625 C 423.710938 280.214844 423.65625 278.289062 423.667969 276.359375 L 423.660156 272.585938 L 423.675781 268.410156 L 423.675781 264.039062 C 423.675781 259.246094 423.6875 254.453125 423.699219 249.660156 L 423.703125 239.722656 C 423.710938 230.984375 423.722656 222.246094 423.738281 213.503906 C 423.75 204.59375 423.761719 195.683594 423.765625 186.773438 C 423.78125 169.277344 423.804688 151.78125 423.835938 134.285156 C 429.121094 131.71875 434.410156 129.167969 439.703125 126.613281 L 444.265625 124.394531 L 448.625 122.296875 L 452.65625 120.351562 C 455.917969 118.941406 455.917969 118.941406 458.707031 118.941406 M 478.234375 151.023438 C 473.203125 155.015625 469.753906 159.546875 466.945312 165.308594 C 464.429688 172.039062 463.152344 178.738281 464.285156 185.894531 C 465.859375 192.457031 467.773438 198.558594 471.96875 203.929688 C 476.929688 208.566406 482.429688 211.367188 488.941406 213.226562 C 495.59375 214.386719 501.3125 213.445312 507.710938 211.488281 C 512.285156 209.601562 515.21875 207.632812 518.402344 203.804688 C 522.390625 197.960938 525.386719 193.070312 526.039062 185.890625 C 526.277344 177.546875 526.292969 170.445312 522.695312 162.792969 C 519.265625 156.9375 516.074219 153.242188 510.316406 149.628906 C 499.300781 145.527344 488.828125 146.097656 478.234375 151.023438 M 720.070312 116.9375 L 723.945312 116.972656 C 735.691406 117.265625 745.132812 119.410156 755.386719 125.277344 C 764.523438 131.234375 771.894531 138.117188 777.390625 147.578125 C 781.890625 156.6875 784.601562 165.960938 785.105469 176.132812 L 783.710938 191.476562 L 693.042969 191.476562 C 698.785156 201.972656 698.785156 201.972656 704.027344 205.945312 C 712.5 210.355469 720.167969 211.550781 729.613281 211.355469 C 735.5 210.820312 740.726562 209.398438 746.046875 206.816406 L 749.972656 203.679688 L 753.023438 201.238281 C 755.546875 201.351562 755.546875 201.351562 758.601562 202.632812 C 762.199219 205.722656 762.199219 205.722656 765.925781 209.519531 L 769.695312 213.308594 L 772.550781 216.582031 L 772.550781 219.371094 L 776.734375 220.765625 C 775.382812 223.921875 774.164062 226.136719 771.671875 228.527344 C 761.121094 236.371094 750.636719 240.886719 737.679688 243.085938 C 719.859375 244.824219 703.890625 242.851562 687.433594 235.664062 C 678.574219 231.222656 671.105469 225.957031 665.144531 217.976562 C 659.355469 208.371094 654.28125 198.652344 653.703125 187.320312 C 653.472656 173.835938 653.828125 162.488281 659.96875 150.222656 C 665.128906 140.996094 670.949219 133.59375 679.847656 127.789062 C 692.816406 120.339844 705.113281 116.761719 720.070312 116.9375 M 702.421875 150.355469 C 697.730469 154.382812 694.441406 159.492188 691.648438 164.972656 L 691.648438 167.761719 L 747.441406 167.761719 C 746.589844 161.179688 746.589844 161.179688 744.019531 157.761719 L 741.515625 154.945312 L 739.050781 152.097656 C 735.851562 149.246094 733.417969 148.050781 729.308594 146.839844 C 720.074219 145.820312 710.625 145.527344 702.421875 150.355469 M 1159.113281 121.273438 C 1168.644531 125.6875 1177.046875 131.671875 1183.605469 139.9375 C 1189.246094 148.335938 1192.410156 156.628906 1195.195312 166.367188 L 1195.195312 191.476562 L 1104.527344 191.476562 C 1109.574219 200.871094 1109.574219 200.871094 1117.082031 206.816406 C 1125.355469 210.957031 1132.585938 211.71875 1141.816406 211.503906 C 1148.550781 210.761719 1154.457031 208.808594 1160.324219 205.421875 L 1162.445312 203.050781 C 1163.128906 202.453125 1163.808594 201.855469 1164.507812 201.238281 C 1167.101562 201.246094 1167.101562 201.246094 1170.085938 202.632812 C 1173.683594 205.722656 1173.683594 205.722656 1177.410156 209.519531 L 1181.179688 213.308594 L 1184.035156 216.582031 L 1184.035156 219.371094 L 1186.824219 219.371094 L 1188.21875 223.554688 C 1176.976562 233.226562 1167.058594 239.410156 1152.550781 242.511719 C 1138.902344 244.820312 1123.125 244.40625 1109.878906 240.4375 C 1098.472656 236.007812 1087.515625 230.464844 1079.121094 221.394531 C 1073.039062 213.050781 1067.589844 203 1065.472656 192.871094 C 1064.695312 177.695312 1064.527344 164.054688 1071.457031 150.222656 C 1075.800781 142.449219 1080.585938 135.4375 1087.789062 130.101562 C 1109.886719 117.195312 1134.378906 112.335938 1159.113281 121.273438 M 1113.90625 150.355469 C 1109.214844 154.382812 1105.925781 159.492188 1103.132812 164.972656 L 1103.132812 167.761719 L 1158.925781 167.761719 C 1158.074219 161.179688 1158.074219 161.179688 1155.503906 157.761719 L 1153 154.945312 L 1150.535156 152.097656 C 1147.335938 149.246094 1144.902344 148.050781 1140.792969 146.839844 C 1131.558594 145.820312 1122.113281 145.527344 1113.90625 150.355469 M 1492.582031 121.367188 C 1504.144531 126.582031 1513.582031 134.199219 1521.117188 144.390625 C 1527.4375 154.097656 1530.488281 164.039062 1531.746094 175.523438 C 1532.179688 186.785156 1529.425781 198.097656 1524.90625 208.386719 C 1519.566406 218.089844 1511.699219 226.460938 1502.414062 232.449219 C 1489.125 239.621094 1476.148438 242.523438 1461.15625 242.347656 C 1449.984375 241.910156 1439.933594 239.492188 1430.058594 234.121094 C 1424.0625 230.3125 1418.957031 226.054688 1414.1875 220.765625 L 1412.105469 218.652344 C 1405.472656 211.589844 1402.09375 203.679688 1399.496094 194.402344 C 1396.941406 182.929688 1397.621094 168.519531 1400.9375 157.300781 C 1404.929688 147.230469 1411.070312 139.578125 1419.226562 132.53125 C 1440.226562 116.433594 1467.527344 112.304688 1492.582031 121.367188 M 1447.664062 151.023438 C 1442.882812 154.425781 1439.800781 157.15625 1436.765625 162.183594 C 1433.65625 170.042969 1432.992188 177.5 1433.714844 185.894531 C 1434.777344 191.707031 1436.445312 196.507812 1440.007812 201.261719 C 1443.792969 205.308594 1447.488281 208.109375 1452.285156 210.914062 C 1458.851562 212.808594 1464.597656 213.195312 1471.375 212.398438 C 1477.535156 210.449219 1482.792969 207.78125 1487.621094 203.40625 C 1491.484375 198.972656 1493.613281 194.359375 1495.089844 188.683594 C 1495.976562 180.535156 1496.058594 172.339844 1493.609375 164.449219 C 1490.839844 158.289062 1486.425781 153.746094 1481.140625 149.628906 C 1474.78125 146.304688 1468.222656 146.335938 1461.167969 146.492188 C 1455.953125 146.976562 1452.207031 148.441406 1447.664062 151.023438 M 1358.839844 118.515625 C 1367.1875 121.285156 1374.242188 125.546875 1380.710938 131.496094 C 1384.199219 135.503906 1384.199219 135.503906 1386.289062 138.46875 C 1380.140625 145.847656 1373.628906 152.679688 1366.761719 159.394531 C 1362.886719 157.609375 1360.640625 156.097656 1357.433594 153.117188 C 1353.96875 150.160156 1350.953125 148.757812 1346.535156 147.625 C 1341.992188 146.785156 1339.941406 146.917969 1335.292969 148.058594 L 1331.890625 149.628906 C 1332.011719 153.011719 1332.011719 153.011719 1333.285156 156.601562 C 1336.511719 158.847656 1336.511719 158.847656 1340.65625 160.347656 L 1345.257812 162.261719 L 1350.113281 164.1875 C 1373.804688 173.738281 1373.804688 173.738281 1381.882812 183.378906 L 1383.414062 186.070312 L 1385.019531 188.78125 C 1387.734375 194.535156 1388.085938 200.023438 1387.972656 206.3125 C 1387.390625 212.960938 1385.242188 218.070312 1381.636719 223.648438 C 1375.089844 232.0625 1366.75 236.320312 1356.996094 240.292969 C 1346.871094 243.777344 1333.386719 242.714844 1322.964844 240.835938 C 1312.496094 237.714844 1303.644531 232.351562 1295.625 224.953125 C 1292.464844 221.011719 1289.675781 216.828125 1287.253906 212.398438 C 1290.382812 209.625 1293.523438 206.867188 1296.671875 204.117188 L 1299.351562 201.730469 L 1301.964844 199.457031 L 1304.355469 197.355469 C 1307.015625 195.496094 1309.195312 194.851562 1312.363281 194.265625 L 1314.253906 196.558594 C 1319.488281 202.753906 1323.894531 207.632812 1331.628906 210.566406 C 1336.40625 211.25 1341.03125 211.535156 1345.839844 211.003906 C 1349.4375 209.703125 1349.4375 209.703125 1351.417969 206.816406 C 1351.882812 202.457031 1351.882812 202.457031 1351.417969 198.449219 L 1348.050781 197.378906 C 1341.929688 195.273438 1335.957031 192.894531 1329.972656 190.429688 L 1326.542969 189.066406 C 1317.027344 185.132812 1309.015625 180.136719 1302.074219 172.46875 C 1297.957031 166.453125 1296.324219 161.554688 1295.671875 154.332031 C 1295.566406 147.238281 1297.421875 141.703125 1300.769531 135.503906 C 1306.429688 128.464844 1312.113281 123.453125 1320.46875 119.8125 C 1332.613281 115.828125 1346.390625 115.910156 1358.839844 118.515625 M 1613.652344 67.332031 L 1613.652344 100.808594 L 1602.492188 104.992188 C 1599.648438 107.351562 1599.648438 107.351562 1598.308594 110.574219 C 1597.304688 114.96875 1597.304688 114.96875 1596.914062 118.941406 L 1613.652344 118.941406 L 1613.652344 151.023438 L 1596.914062 151.023438 L 1596.914062 241.691406 L 1562.042969 241.691406 L 1560.648438 240.292969 C 1560.527344 237.511719 1560.472656 234.726562 1560.488281 231.941406 L 1560.488281 226.527344 L 1560.511719 220.628906 L 1560.519531 214.632812 C 1560.523438 209.359375 1560.535156 204.085938 1560.550781 198.816406 C 1560.566406 193.441406 1560.574219 188.0625 1560.578125 182.6875 C 1560.59375 172.132812 1560.617188 161.578125 1560.648438 151.023438 L 1556.730469 151.074219 L 1551.667969 151.113281 L 1546.617188 151.160156 L 1542.515625 151.023438 L 1541.121094 149.628906 C 1541.007812 147.347656 1540.960938 145.0625 1540.984375 142.78125 L 1540.996094 138.597656 L 1541.03125 134.199219 L 1541.050781 129.78125 C 1541.070312 126.167969 1541.09375 122.554688 1541.121094 118.941406 L 1560.648438 118.941406 L 1561.085938 112.054688 C 1562.035156 102.027344 1564.148438 93.636719 1569.800781 85.203125 C 1574.96875 78.828125 1581.101562 74.863281 1588.546875 71.515625 C 1597.167969 68.636719 1604.519531 67.332031 1613.652344 67.332031 " fill-opacity="1" fill-rule="nonzero"/><g clip-path="url(#8652d6a0f7)"><path fill="#1e202a" d="M 199.230469 183.203125 L 203.445312 184.5 C 206.234375 188.683594 206.234375 188.683594 206.847656 193.480469 C 206.644531 195.121094 206.441406 196.757812 206.234375 198.449219 C 200.675781 203.996094 193.894531 206.71875 186.796875 209.789062 L 179.257812 213.113281 L 175.320312 214.839844 C 168.867188 217.683594 162.445312 220.597656 156.019531 223.507812 L 148.359375 226.96875 L 144.539062 228.699219 L 136.699219 232.242188 C 132.851562 233.976562 129.007812 235.714844 125.160156 237.457031 L 121.628906 239.050781 L 118.347656 240.535156 L 115.488281 241.828125 L 112.78125 243.085938 L 109.71875 244.402344 L 107.199219 245.875 C 105.863281 249.734375 105.863281 249.734375 105.253906 254.347656 C 100.292969 281.351562 100.292969 281.351562 95.351562 287.546875 C 90.640625 291.101562 85.210938 292.507812 79.570312 293.835938 C 73.785156 295.460938 68.488281 298.296875 63.089844 300.886719 C 61.015625 301.859375 58.933594 302.816406 56.84375 303.753906 L 54.171875 304.984375 C 50.828125 306.035156 47.914062 306 44.433594 305.851562 C 44.109375 295.160156 45.097656 284.882812 46.523438 274.292969 L 47.128906 269.648438 C 47.617188 265.90625 48.113281 262.167969 48.617188 258.429688 L 45.433594 257.226562 C 42.21875 255.878906 39.636719 254.511719 36.777344 252.558594 L 34.15625 250.785156 L 31.441406 248.925781 C 29.585938 247.671875 27.730469 246.414062 25.875 245.160156 L 23.191406 243.34375 C 18.71875 240.347656 14.148438 237.523438 9.558594 234.714844 L 10.957031 230.53125 C 14.5 228.457031 14.5 228.457031 19.195312 226.304688 L 21.726562 225.132812 C 23.5 224.3125 25.277344 223.5 27.058594 222.695312 C 29.742188 221.480469 32.421875 220.25 35.09375 219.007812 C 38.511719 217.433594 41.949219 215.898438 45.40625 214.40625 C 48.128906 213.21875 50.828125 211.972656 53.464844 210.605469 C 56.726562 209.09375 58.960938 208.316406 62.566406 208.214844 C 70.421875 210.804688 77.386719 215.097656 84.550781 219.164062 L 89.023438 221.550781 L 93.007812 223.824219 C 97.167969 225.214844 97.167969 225.214844 100.355469 224.40625 C 103.652344 223.351562 106.804688 222.125 109.992188 220.765625 L 112.863281 219.554688 C 115.71875 218.296875 118.558594 216.996094 121.378906 215.660156 L 124.535156 214.195312 C 126.746094 213.171875 128.957031 212.140625 131.167969 211.109375 C 136.921875 208.425781 142.691406 205.773438 148.457031 203.117188 L 158.519531 198.476562 C 161.339844 197.175781 164.160156 195.867188 166.980469 194.558594 C 171.394531 192.519531 175.824219 190.507812 180.257812 188.511719 L 184.035156 186.738281 C 189.574219 184.273438 193.070312 183.09375 199.230469 183.203125 M 1628.996094 67.332031 L 1662.472656 67.332031 L 1663.867188 117.546875 L 1683.394531 118.941406 L 1683.394531 149.628906 L 1663.867188 151.023438 C 1663.761719 157.597656 1663.6875 164.171875 1663.636719 170.75 C 1663.617188 172.984375 1663.589844 175.21875 1663.550781 177.449219 C 1663.503906 180.675781 1663.472656 183.898438 1663.457031 187.121094 L 1663.394531 190.113281 C 1663.390625 197.253906 1664.785156 202 1668.050781 208.214844 C 1671.253906 209.8125 1673.738281 210.039062 1677.292969 210.394531 L 1680.75 210.746094 L 1683.394531 211.003906 C 1683.4375 216.320312 1683.460938 221.636719 1683.484375 226.957031 L 1683.519531 231.558594 L 1683.53125 235.929688 L 1683.554688 239.980469 L 1683.394531 243.085938 L 1682 244.480469 C 1671.203125 245.402344 1661.296875 244.605469 1651.3125 240.292969 C 1645.128906 237.257812 1640.339844 234.023438 1636.164062 228.476562 C 1632.34375 222.296875 1629.25 216.796875 1628.824219 209.445312 L 1628.828125 206.21875 L 1628.824219 202.496094 L 1628.835938 198.449219 L 1628.835938 194.15625 C 1628.835938 189.480469 1628.851562 184.800781 1628.859375 180.117188 L 1628.867188 170.386719 C 1628.871094 161.847656 1628.882812 153.308594 1628.898438 144.769531 C 1628.914062 136.054688 1628.921875 127.339844 1628.929688 118.625 C 1628.941406 101.527344 1628.964844 84.429688 1628.996094 67.332031 M 1242.621094 118.941406 L 1244.015625 132.890625 L 1247.414062 129.75 C 1253.609375 124.582031 1260.742188 121.59375 1268.425781 119.289062 C 1273.746094 118.757812 1279.117188 118.941406 1284.464844 118.941406 L 1284.464844 151.023438 L 1275.398438 151.371094 C 1268.109375 151.902344 1262.25 152.625 1255.9375 156.375 C 1251.457031 159.746094 1248.929688 163.308594 1246.699219 168.402344 C 1244.894531 175.316406 1244.910156 181.988281 1244.832031 189.109375 L 1244.75 193.671875 C 1244.664062 198.460938 1244.601562 203.25 1244.539062 208.039062 C 1244.484375 211.292969 1244.429688 214.546875 1244.375 217.800781 C 1244.242188 225.765625 1244.121094 233.726562 1244.015625 241.691406 C 1238.230469 241.730469 1232.449219 241.753906 1226.667969 241.777344 L 1221.660156 241.8125 L 1216.90625 241.828125 L 1212.5 241.847656 L 1209.140625 241.691406 L 1207.746094 240.292969 C 1207.566406 237.082031 1207.457031 233.863281 1207.414062 230.644531 L 1207.355469 227.585938 C 1207.179688 217.015625 1207.101562 206.445312 1207.03125 195.875 C 1206.992188 190.859375 1206.925781 185.84375 1206.828125 180.828125 C 1206.71875 174.773438 1206.652344 168.722656 1206.632812 162.667969 C 1206.617188 160.363281 1206.582031 158.054688 1206.527344 155.75 C 1206.367188 148.90625 1206.328125 142.394531 1207.746094 135.679688 C 1210.304688 132.542969 1212.257812 131.230469 1215.960938 129.679688 L 1218.90625 128.707031 C 1220.773438 127.789062 1222.628906 126.851562 1224.476562 125.886719 C 1226.277344 125.046875 1228.082031 124.214844 1229.890625 123.386719 C 1230.816406 122.953125 1231.738281 122.519531 1232.691406 122.070312 C 1239.460938 118.941406 1239.460938 118.941406 1242.621094 118.941406 M 603.773438 118.941406 L 605.167969 132.890625 L 610.050781 128.96875 C 617.273438 123.535156 624.289062 121.132812 633.0625 118.941406 L 645.617188 118.941406 L 645.617188 151.023438 L 637.164062 151.460938 C 629.667969 152.023438 624.339844 153.152344 617.71875 156.601562 L 613.535156 157.996094 C 611.972656 161.265625 611.972656 161.265625 610.746094 164.972656 L 609.324219 167.425781 C 603.226562 181.375 606.394531 202.855469 606.472656 217.890625 C 606.480469 220.214844 606.488281 222.539062 606.492188 224.863281 C 606.507812 230.472656 606.535156 236.078125 606.5625 241.691406 L 570.296875 241.691406 L 570.296875 134.285156 C 600.980469 118.941406 600.980469 118.941406 603.773438 118.941406 M 319.21875 148.234375 L 322.011719 149.628906 C 329.613281 170.246094 330.304688 194.695312 326.621094 216.207031 C 325.480469 221.589844 323.855469 226.738281 322.011719 231.925781 L 320.21875 236.976562 C 312.582031 256.394531 300.074219 273.445312 284.261719 287.023438 C 266.078125 301.46875 244.585938 311.9375 221.578125 315.617188 C 197.769531 318.613281 175.832031 314.953125 153.230469 307.25 L 151.835938 305.851562 C 151.742188 302.804688 151.714844 299.753906 151.75 296.699219 L 151.789062 291.636719 L 151.835938 287.71875 L 157.328125 289.550781 L 160.832031 290.707031 C 163.027344 291.445312 165.210938 292.210938 167.382812 293.015625 C 184.726562 299.324219 202.371094 300.222656 220.445312 297.308594 C 239.222656 293.941406 255.101562 286.683594 270.398438 275.167969 L 273.472656 272.871094 C 287.480469 261.539062 297.058594 245.605469 303.875 229.136719 C 309.773438 212.179688 312.265625 195.347656 309.371094 177.585938 C 307.664062 166.925781 307.664062 166.925781 308.0625 162.183594 C 310.878906 156.417969 314.359375 152.386719 319.21875 148.234375 M 1048.734375 118.941406 L 1052.917969 120.335938 L 1052.917969 241.691406 L 1016.652344 241.691406 L 1016.652344 134.285156 Z M 255.667969 77.445312 C 265.199219 81.753906 273.507812 87.125 281.558594 93.835938 L 285.417969 97.003906 C 295.296875 105.539062 303.59375 115.085938 310.851562 125.917969 L 310.851562 128.707031 C 304.03125 129.886719 298.117188 130.160156 291.324219 128.707031 C 286.238281 125.183594 282.640625 120.152344 278.753906 115.410156 C 269.179688 103.828125 255.496094 96.78125 241.707031 91.351562 C 222.503906 84.527344 201.980469 83.132812 181.753906 85.964844 C 172.070312 87.78125 163.421875 90.78125 154.625 95.230469 L 151.835938 95.230469 L 151.835938 77.097656 C 184.75 62.410156 222.695312 63.46875 255.667969 77.445312 " fill-opacity="1" fill-rule="nonzero"/></g></svg>